<svg xmlns="http://www.w3.org/2000/svg" version="1.1" xmlns:xlink="http://www.w3.org/1999/xlink" xmlns:svgjs="http://svgjs.dev/svgjs" width="2000" height="1500" viewBox="0 0 2000 1500"><rect width="2000" height="1500" fill="#50a060"></rect><g transform="matrix(0.75,0,0,0.75,249.090909090909,278.98548387096776)"><svg viewBox="0 0 396 248" data-background-color="#50a060" preserveAspectRatio="xMidYMid meet" height="1252" width="2000" xmlns="http://www.w3.org/2000/svg" xmlns:xlink="http://www.w3.org/1999/xlink"><g id="tight-bounds" transform="matrix(1,0,0,1,0.2400000000000091,0.4000000000000057)"><svg viewBox="0 0 395.52 247.2" height="247.2" width="395.52"><g><svg></svg></g><g><svg viewBox="0 0 395.52 247.2" height="247.2" width="395.52"><g transform="matrix(1,0,0,1,75.54432,84.37138986786294)"><svg viewBox="0 0 244.43135999999998 78.45722026427408" height="78.45722026427408" width="244.43135999999998"><g><svg viewBox="0 0 370.003038557733 118.76303390274782" height="78.45722026427408" width="244.43135999999998"><g transform="matrix(1,0,0,1,125.57167855773301,36.69950130913789)"><svg viewBox="0 0 244.43135999999998 45.36403128447205" height="45.36403128447205" width="244.43135999999998"><g id="textblocktransform"><svg viewBox="0 0 244.43135999999998 45.36403128447205" height="45.36403128447205" width="244.43135999999998" id="textblock"><g><svg viewBox="0 0 244.43135999999998 45.36403128447205" height="45.36403128447205" width="244.43135999999998"><g transform="matrix(1,0,0,1,0,0)"><svg width="244.43135999999998" viewBox="3.91 -35.86 196.51 36.47" height="45.36403128447205" data-palette-color="#454545"><path d="M17.16-11.69L17.16-11.69Q16.53-11.69 16.09-12.01L16.09-12.01Q15.63-12.33 14.99-12.92 14.36-13.5 13.57-14.36L13.57-14.36Q13.28-14.7 13.28-14.97L13.28-14.97Q13.28-15.23 13.57-15.58L13.57-15.58Q15.09-17.29 16.33-18.09L16.33-18.09Q16.63-18.29 17.16-18.29L17.16-18.29Q18.82-18.29 20.03-19.53 21.24-20.78 21.19-23.56L21.19-23.56Q21.17-26.56 19.71-27.76 18.26-28.96 15.75-28.96L15.75-28.96 14.58-28.96Q12.96-28.96 12.38-28.27 11.79-27.59 11.79-25.93L11.79-25.93 11.79-1.29Q11.79-0.56 11.49-0.28 11.18 0 10.45 0L10.45 0 5.25 0Q4.52 0 4.21-0.28 3.91-0.56 3.91-1.29L3.91-1.29 3.91-28.47Q3.91-30.91 4.36-32.34 4.81-33.76 6.12-34.39 7.42-35.01 9.94-35.01L9.94-35.01 15.75-35.01Q22.75-35.01 26.12-32.26 29.49-29.52 29.49-23.85L29.49-23.85Q29.49-19.6 27.72-16.92 25.95-14.23 23.13-12.96 20.31-11.69 17.16-11.69ZM42.75-25.93L42.75-1.29Q42.75-0.56 42.44-0.28 42.14 0 41.4 0L41.4 0 36.2 0Q35.47 0 35.17-0.28 34.86-0.56 34.86-1.29L34.86-1.29 34.86-28.47Q34.86-30.91 35.31-32.34 35.76-33.76 37.07-34.39 38.38-35.01 40.89-35.01L40.89-35.01 47.36-35.01Q60.1-35.01 60.1-25.22L60.1-25.22Q60.1-22.24 59.1-20.34 58.1-18.43 56.61-17.37 55.12-16.31 53.68-15.77L53.68-15.77 53.68-15.65Q55.32-14.58 56.8-12.83 58.27-11.08 59.47-9.05 60.67-7.01 61.5-5.02 62.33-3.03 62.64-1.46L62.64-1.46Q62.79-0.73 62.66-0.37 62.52 0 61.81 0L61.81 0 56.17 0Q55.54 0 55.06-0.27 54.59-0.54 54.2-1.51L54.2-1.51Q52.34-6.18 49.92-9.12 47.51-12.06 45.26-13.84L45.26-13.84Q43.82-14.99 43.82-15.48L43.82-15.48Q43.82-15.87 44.28-16.55L44.28-16.55Q44.58-16.97 45.14-17.55 45.7-18.14 46.12-18.43L46.12-18.43Q46.53-18.73 46.79-18.8 47.04-18.87 47.58-18.87L47.58-18.87Q49.39-18.87 50.6-20.12 51.8-21.36 51.8-24.05L51.8-24.05Q51.8-26.59 50.52-27.77 49.24-28.96 46.99-28.96L46.99-28.96 45.53-28.96Q43.92-28.96 43.33-28.27 42.75-27.59 42.75-25.93L42.75-25.93ZM82.49 0.61L82.49 0.61Q77.41 0.61 73.65-1.34 69.89-3.3 67.83-7.23 65.77-11.16 65.77-17.04L65.77-17.04Q65.77-26.39 70.33-30.99 74.9-35.6 83.05-35.6L83.05-35.6Q90.69-35.6 95.14-31.09 99.58-26.59 99.58-17.75L99.58-17.75Q99.58-11.5 97.5-7.43 95.43-3.37 91.6-1.38 87.76 0.61 82.49 0.61ZM82.64-5.98L82.64-5.98Q87.03-5.98 89.16-9.13 91.28-12.28 91.28-17.31L91.28-17.31Q91.28-23.14 89.28-26.07 87.28-29 82.83-29L82.83-29Q74.07-29 74.07-17.46L74.07-17.46Q74.07-12.3 76.18-9.14 78.29-5.98 82.64-5.98ZM113.57-25.56L113.57-25.56 113.57-20 122.23-20Q122.82-20 123.11-19.8L123.11-19.8Q123.75-19.36 124.43-18.75 125.11-18.14 125.87-17.29L125.87-17.29Q126.12-16.97 126.12-16.77L126.12-16.77Q126.12-16.55 125.87-16.28L125.87-16.28Q125.11-15.43 124.43-14.82 123.75-14.21 123.11-13.77L123.11-13.77Q122.77-13.57 122.23-13.57L122.23-13.57 113.57-13.57 113.57-1.29Q113.57-0.56 113.26-0.28 112.96 0 112.22 0L112.22 0 107.02 0Q106.29 0 105.99-0.28 105.68-0.56 105.68-1.29L105.68-1.29 105.68-28.47Q105.68-30.91 106.13-32.34 106.58-33.76 107.89-34.39 109.2-35.01 111.71-35.01L111.71-35.01 123.23-35.01Q123.82-35.01 124.11-34.81L124.11-34.81Q124.75-34.38 125.43-33.76 126.12-33.15 126.87-32.3L126.87-32.3Q127.12-31.98 127.12-31.79L127.12-31.79Q127.12-31.57 126.87-31.3L126.87-31.3Q126.12-30.44 125.43-29.83 124.75-29.22 124.11-28.78L124.11-28.78Q123.77-28.59 123.23-28.59L123.23-28.59 116.35-28.59Q114.74-28.59 114.15-27.91 113.57-27.22 113.57-25.56ZM150.28 0L138.15 0Q135.63 0 134.33-0.63 133.02-1.27 132.57-2.71 132.12-4.15 132.12-6.54L132.12-6.54 132.12-31.1Q132.12-31.81 132.36-32.18L132.36-32.18Q133.46-33.79 135.44-35.57L135.44-35.57Q135.81-35.86 136.07-35.86L136.07-35.86Q136.37-35.86 136.68-35.57L136.68-35.57Q137.76-34.64 138.49-33.8 139.22-32.96 139.76-32.18L139.76-32.18Q140-31.79 140-31.1L140-31.1 140-9.45Q140-7.81 140.59-7.1 141.18-6.4 142.79-6.4L142.79-6.4 150.28-6.42Q150.87-6.42 151.16-6.23L151.16-6.23Q151.8-5.79 152.48-5.18 153.16-4.57 153.92-3.71L153.92-3.71Q154.16-3.39 154.16-3.2L154.16-3.2Q154.16-2.98 153.92-2.71L153.92-2.71Q153.16-1.86 152.48-1.25 151.8-0.63 151.16-0.2L151.16-0.2Q150.82 0 150.28 0L150.28 0ZM165.47-31.1L165.47-1.29Q165.47-0.56 165.16-0.28 164.86 0 164.12 0L164.12 0 158.92 0Q158.19 0 157.89-0.28 157.58-0.56 157.58-1.29L157.58-1.29 157.58-31.1Q157.58-31.81 157.82-32.18L157.82-32.18Q158.92-33.79 160.9-35.57L160.9-35.57Q161.27-35.86 161.54-35.86L161.54-35.86Q161.83-35.86 162.15-35.57L162.15-35.57Q163.22-34.64 163.95-33.8 164.68-32.96 165.22-32.18L165.22-32.18Q165.47-31.79 165.47-31.1L165.47-31.1ZM186.02-13.7L186.02-13.7Q182.28-11.65 180.76-9.08 179.23-6.52 179.23-2.64L179.23-2.64 179.23-1.29Q179.23-0.56 178.94-0.28 178.65 0 177.94 0L177.94 0 172.86 0Q172.18 0 171.87-0.28 171.57-0.56 171.57-1.29L171.57-1.29 171.57-2.64Q171.57-6.27 172.37-8.8 173.18-11.33 175.05-13.28 176.91-15.23 180.14-17.11L180.14-17.11Q176.47-19.21 174.39-22.18 172.3-25.15 172.3-28.74L172.3-28.74 172.3-31.1Q172.3-31.81 172.54-32.18L172.54-32.18Q173.64-33.79 175.62-35.57L175.62-35.57Q175.99-35.86 176.28-35.86L176.28-35.86Q176.57-35.86 176.89-35.57L176.89-35.57Q177.96-34.64 178.7-33.8 179.43-32.96 179.97-32.18L179.97-32.18Q180.21-31.79 180.21-31.1L180.21-31.1 180.21-28.74Q180.21-26.73 181.83-24.51 183.46-22.29 186.29-20.83L186.29-20.83Q189.1-22.27 190.32-24.29 191.54-26.32 191.54-28.74L191.54-28.74 191.54-31.1Q191.54-31.81 191.78-32.18L191.78-32.18Q192.83-33.76 194.76-35.57L194.76-35.57Q195.13-35.86 195.37-35.86L195.37-35.86Q195.66-35.86 195.98-35.57L195.98-35.57Q197.01-34.64 197.73-33.8 198.45-32.96 198.96-32.18L198.96-32.18Q199.2-31.79 199.2-31.1L199.2-31.1 199.2-28.74Q199.2-24.71 197.24-21.95 195.27-19.19 192.22-17.46L192.22-17.46Q195.1-15.75 196.91-13.78 198.72-11.82 199.57-9.14 200.42-6.47 200.42-2.64L200.42-2.64 200.42-1.29Q200.42-0.56 200.12-0.28 199.81 0 199.08 0L199.08 0 193.88 0Q193.15 0 192.84-0.28 192.54-0.56 192.54-1.29L192.54-1.29 192.54-2.64Q192.54-5.25 192.06-7.18 191.59-9.11 190.18-10.66 188.78-12.21 186.02-13.7Z" opacity="1" transform="matrix(1,0,0,1,0,0)" fill="#454545" class="wordmark-text-0" data-fill-palette-color="primary" id="text-0"></path></svg></g></svg></g></svg></g></svg></g><g><svg viewBox="0 0 114.86231950821998 118.76303390274782" height="118.76303390274782" width="114.86231950821998"><g><svg xmlns="http://www.w3.org/2000/svg" xmlns:xlink="http://www.w3.org/1999/xlink" version="1.1" x="0" y="0" viewBox="7.486531570051438 6.066 84.02646842994857 86.88" enable-background="new 0 0 100 100" xml:space="preserve" height="118.76303390274782" width="114.86231950821998" class="icon-icon-0" data-fill-palette-color="accent" id="icon-0"><rect x="34.571" y="16.321" fill="#454545" width="5.716" height="5.716" data-fill-palette-color="accent"></rect><rect x="34.571" y="28.368" fill="#454545" width="5.716" height="5.716" data-fill-palette-color="accent"></rect><rect x="34.571" y="40.416" fill="#454545" width="5.716" height="5.716" data-fill-palette-color="accent"></rect><rect x="34.571" y="52.464" fill="#454545" width="5.716" height="5.716" data-fill-palette-color="accent"></rect><rect x="80.349" y="16.321" fill="#454545" width="5.716" height="5.716" data-fill-palette-color="accent"></rect><rect x="80.349" y="28.368" fill="#454545" width="5.716" height="5.716" data-fill-palette-color="accent"></rect><rect x="80.349" y="40.416" fill="#454545" width="5.716" height="5.716" data-fill-palette-color="accent"></rect><rect x="80.349" y="52.464" fill="#454545" width="5.716" height="5.716" data-fill-palette-color="accent"></rect><path fill="#454545" d="M52.324 50.356A1.12 1.12 0 0 1 51.206 49.239V26.271A1.117 1.117 0 0 1 52.908 25.32L71.612 36.803C71.944 37.006 72.144 37.366 72.144 37.754 72.144 38.143 71.943 38.503 71.612 38.705L52.909 50.19A1.1 1.1 0 0 1 52.324 50.356M53.442 28.268V47.242L68.892 37.754z" data-fill-palette-color="accent"></path><path fill="#454545" d="M81.978 8.301C86.003 8.301 89.278 11.576 89.278 15.601V59.3C89.278 63.325 86.003 66.6 81.978 66.6H38.279C34.254 66.6 30.979 63.325 30.979 59.3V15.601C30.979 11.576 34.254 8.301 38.279 8.301zM81.978 6.066H38.279A9.535 9.535 0 0 0 28.744 15.601V59.3A9.535 9.535 0 0 0 38.279 68.835H81.978A9.535 9.535 0 0 0 91.513 59.3V15.601C91.512 10.335 87.243 6.066 81.978 6.066" data-fill-palette-color="accent"></path><path fill="#454545" d="M74.63 71.069H72.331L72.556 71.993A7.5 7.5 0 0 1 71.672 77.699 7.5 7.5 0 0 1 67.011 81.108L28.438 90.494A7.5 7.5 0 0 1 22.732 89.608 7.5 7.5 0 0 1 19.323 84.947L9.94 46.377A7.5 7.5 0 0 1 10.826 40.671 7.5 7.5 0 0 1 15.487 37.262L26.51 34.58V32.28L14.959 35.089A9.72 9.72 0 0 0 8.916 39.508 9.72 9.72 0 0 0 7.768 46.904L17.154 85.474A9.7 9.7 0 0 0 21.571 91.517 9.7 9.7 0 0 0 26.636 92.946C27.411 92.946 28.194 92.852 28.967 92.662L67.54 83.276A9.7 9.7 0 0 0 73.58 78.859 9.7 9.7 0 0 0 74.728 71.463z" data-fill-palette-color="accent"></path></svg></g></svg></g></svg></g></svg></g><g><path d="M0 123.6c0-68.262 55.338-123.6 123.6-123.6 53.229 0 98.6 33.648 116.001 80.834l-1.441 0c-17.338-46.425-62.088-79.483-114.56-79.483-67.516 0-122.249 54.733-122.249 122.249 0 67.516 54.733 122.249 122.249 122.249 52.471 0 97.221-33.058 114.56-79.483l1.441 0c-17.402 47.186-62.772 80.834-116.001 80.834-68.262 0-123.6-55.338-123.6-123.6z" fill="#454545" stroke="transparent" data-fill-palette-color="tertiary"></path></g></svg></g><defs></defs></svg><rect width="395.52" height="247.2" fill="none" stroke="none" visibility="hidden"></rect></g></svg></g></svg>